
<svg {...props} viewBox="0 0 102.97 23.35">
  
  <g id="Layer_1-2" data-name="Layer 1">
    <g>
      <g>
        <path class="cls-1" d="m1.32,6.96c-1.04-.88-1.32-2-1.32-3.01,0-.7.23-1.91,1.25-2.81C2.04.46,3.06.07,4.62.07c.65,0,1.06.04,1.54.11.41.06.72.13,1.04.17.11.01.16.06.16.12,0,.08-.02.23-.05.59-.01.34-.01.92-.04,1.14-.01.16-.04.24-.13.24-.08,0-.13-.08-.13-.23-.01-.3-.11-.66-.4-.95-.35-.37-1.15-.64-2.12-.64-.88,0-1.46.2-1.92.6-.73.66-.96,1.61-.96,2.61,0,2.36,1.76,3.59,3.27,3.59.94,0,1.46-.1,1.87-.55.18-.19.3-.48.35-.7.05-.18.08-.22.17-.22.07,0,.11.07.11.16,0,.13-.13,1.04-.24,1.42-.05.18-.1.23-.28.3-.42.17-1.21.23-1.88.23-1.44,0-2.67-.28-3.66-1.1Z"/>
        <path class="cls-1" d="m14.74,3.43s.07-.02.07-.07v-.22c0-1.55,0-1.81-.02-2.13-.02-.34-.11-.47-.46-.54-.08-.01-.26-.02-.4-.04-.13,0-.19-.05-.19-.12s.07-.1.22-.1c.59,0,1.3.04,1.56.04.22,0,.98-.04,1.42-.04.14,0,.2.02.2.1s-.05.12-.18.12c-.11.01-.19.01-.31.04-.29.04-.37.19-.4.54-.02.32-.02.6-.02,2.16v1.8c0,.95,0,1.71.06,2.15.02.3.1.52.41.56.14.02.38.02.53.04.12,0,.17.06.17.11,0,.07-.08.11-.2.11-.7,0-1.44-.04-1.71-.04-.23,0-.91.04-1.36.04-.16,0-.22-.04-.22-.11,0-.05.04-.11.17-.11.14-.01.28-.01.37-.04.22-.05.28-.26.31-.58.06-.42.06-1.18.06-2.11v-.88s-.04-.06-.07-.06h-3.89s-.07.01-.07.06v.91c0,.95,0,1.65.06,2.1.02.29.11.5.42.54.16.04.37.04.52.05.12,0,.18.06.18.11,0,.07-.08.11-.22.11-.67,0-1.44-.04-1.7-.04-.22,0-.96.04-1.38.04-.12,0-.2-.04-.2-.11,0-.05.04-.11.17-.11.16-.01.28-.01.37-.04.22-.05.29-.28.31-.58.06-.42.06-1.19.06-2.13v-1.8c0-1.55,0-1.82-.02-2.15-.02-.35-.11-.48-.47-.55-.08-.02-.24-.02-.38-.04-.13,0-.18-.05-.18-.12s.08-.1.22-.1c.58,0,1.27.04,1.55.04s.98-.04,1.4-.04c.17,0,.23.04.23.11s-.08.11-.19.11c-.1.01-.23.02-.31.04-.29.04-.37.2-.4.55-.02.32-.02.62-.02,2.12v.22s.04.07.07.07h3.89Z"/>
        <path class="cls-1" d="m19.44,3.17c0-1.56,0-1.79-.02-2.11-.02-.36-.12-.52-.44-.58-.13-.02-.28-.04-.41-.05-.12,0-.18-.04-.18-.11s.07-.11.23-.11c.54,0,1.27.04,1.48.04.32,0,1.18-.04,1.54-.04.72,0,1.43.07,1.97.42.34.22.78.73.78,1.43,0,.77-.36,1.45-1.4,2.23.89,1.1,1.63,2.05,2.25,2.69.58.61.97.66,1.16.71.11.01.19.01.28.02.1,0,.14.05.14.1,0,.08-.07.12-.2.12h-1.01c-.7,0-1-.07-1.3-.23-.42-.23-.82-.7-1.37-1.45-.43-.6-.88-1.24-1.03-1.42-.04-.05-.1-.06-.17-.06l-.85-.02s-.08.02-.08.08v.22c0,.92,0,1.63.05,2.05.02.3.1.53.42.56.14.04.36.04.5.05.1,0,.13.05.13.1,0,.07-.07.12-.2.12-.64,0-1.48-.04-1.63-.04-.18,0-.91.04-1.33.04-.13,0-.2-.04-.2-.11,0-.05.05-.11.17-.11.16-.01.29-.01.38-.04.2-.05.28-.26.3-.58.06-.42.06-1.19.06-2.13v-1.8Zm1.35.78c0,.1.02.14.1.17.22.08.53.12.8.12.38,0,.55-.05.73-.18.3-.22.59-.66.59-1.48,0-1.45-1-1.83-1.6-1.83-.25,0-.44.01-.54.05-.06.02-.08.06-.08.14v3.01Z"/>
        <path class="cls-1" d="m27.17,3.17c0-1.56,0-1.8-.02-2.13-.02-.34-.13-.5-.36-.55-.11-.02-.24-.04-.37-.05-.11,0-.17-.04-.17-.12,0-.06.07-.1.24-.1.42,0,1.14.04,1.4.04.24,0,.95-.04,1.36-.04.14,0,.2.04.2.1,0,.08-.06.12-.17.12-.11.01-.16.01-.28.04-.29.05-.37.23-.4.58-.04.32-.04.56-.04,2.12v1.8c0,.96.01,1.74.06,2.17.02.28.11.49.42.53.16.04.3.04.46.05.13,0,.18.06.18.11,0,.07-.08.11-.2.11-.71,0-1.39-.04-1.64-.04-.2,0-.92.04-1.34.04-.14,0-.22-.04-.22-.11,0-.05.05-.11.18-.11.14-.01.23-.01.32-.04.2-.05.3-.23.32-.52.06-.43.06-1.2.06-2.19v-1.8Z"/>
        <path class="cls-1" d="m30.84,7.8c-.17-.07-.2-.14-.2-.35,0-.61.04-1.21.05-1.39.01-.17.05-.26.13-.26.1,0,.11.08.12.17.01.13.01.31.07.48.22.78.88,1.1,1.56,1.1.96,0,1.39-.59,1.39-1.12,0-.48-.14-.94-1.03-1.58l-.5-.38c-1.19-.9-1.57-1.58-1.57-2.42,0-1.13.97-1.97,2.47-1.97.48,0,.77.06,1.07.11.17.02.31.06.43.07.1.01.12.06.12.13,0,.17-.05.46-.05,1.27,0,.23-.04.31-.12.31-.07,0-.11-.07-.12-.2-.01-.13-.08-.42-.24-.65-.18-.28-.52-.54-1.2-.54-.79,0-1.25.43-1.25,1.02,0,.44.22.84,1.08,1.43l.34.23c1.34.91,1.77,1.62,1.77,2.59,0,.62-.26,1.33-1.03,1.81-.54.32-1.15.41-1.7.41-.65,0-1.13-.07-1.58-.26Z"/>
        <path class="cls-1" d="m40.08,4.97c0,.91,0,1.71.05,2.16.04.28.1.5.42.54.14.02.36.04.52.05.12,0,.18.05.18.1,0,.07-.07.12-.22.12-.7,0-1.43-.04-1.69-.04-.24,0-.97.04-1.38.04-.14,0-.22-.05-.22-.12,0-.05.05-.1.18-.1.14-.01.26-.01.36-.04.23-.05.29-.26.32-.56.05-.43.05-1.2.05-2.15V.82c-.4,0-1.19,0-1.67.04-.61.05-.79.1-.94.36-.07.13-.1.22-.14.34-.02.07-.06.12-.12.12-.07,0-.1-.06-.1-.18.01-.22.2-1.07.23-1.2.02-.14.06-.22.12-.22.08,0,.18.1.44.12.29.04.72.06,1.08.06h4.25c.34,0,.56-.04.72-.06.16-.02.24-.05.3-.05.07,0,.08.06.08.24,0,.2-.05.95-.05,1.21-.01.11-.04.17-.11.17-.08,0-.1-.06-.11-.2,0-.04-.01-.08-.01-.13-.02-.28-.28-.55-1.16-.56-.29-.02-.73-.04-1.39-.05v4.15Z"/>
        <path class="cls-1" d="m52.19,6.61c.1.64.2.91.52,1.01.3.08.5.08.65.1.11,0,.18.04.18.1,0,.08-.12.12-.28.12-.38,0-1.73-.02-2.29-.07-.23-.01-.3-.05-.3-.11,0-.05.05-.11.12-.13.08-.04.11-.12.06-.44l-.59-4.37-2.3,4.53c-.24.49-.3.58-.38.58-.11,0-.2-.19-.4-.53-.28-.48-1.08-1.95-1.26-2.3-.11-.23-.73-1.49-1.07-2.18l-.52,3.86c-.02.24-.02.38-.02.54,0,.22.12.31.31.36.19.04.32.04.44.05.1,0,.16.05.16.1,0,.1-.08.12-.24.12-.46,0-.94-.04-1.16-.04-.22,0-.73.04-1.08.04-.1,0-.18-.02-.18-.12,0-.05.06-.1.17-.1.08-.01.17-.01.31-.02.31-.06.4-.43.46-.84l1.02-6.55c.05-.2.11-.3.19-.3.1,0,.16.06.31.34l2.9,5.58,2.88-5.65c.11-.17.16-.26.25-.26.11,0,.17.11.2.34l.94,6.27Z"/>
        <path class="cls-1" d="m55.59,5.4s-.07.02-.1.08l-.53,1.31c-.1.25-.16.5-.16.62,0,.3.37.31.6.31.14,0,.18.05.18.1,0,.08-.08.11-.19.11-.37,0-.8-.04-1.18-.04-.12,0-.72.04-1.27.04-.13,0-.19-.02-.19-.11,0-.06.06-.11.14-.11.76-.07.92-.22,1.2-.91l2.54-6.01c.22-.56.34-.79.47-.79.1,0,.16.11.28.37.2.59,1.98,4.68,2.65,6.21.38.9.68,1.06.94,1.1.11.02.29.02.4.02.13,0,.18.05.18.11,0,.07-.05.11-.2.11-.5,0-1.76.02-2.52-.02-.11-.01-.18-.04-.18-.1,0-.05.05-.07.11-.1.11-.04.19-.07.12-.22l-.82-2.03s-.05-.07-.1-.07h-2.37Zm2.15-.6c.06,0,.06-.02.05-.06l-.94-2.45c-.04-.1-.07-.12-.12,0l-.95,2.45s0,.06.05.06h1.91Z"/>
        <path class="cls-1" d="m62.11,7.8c-.17-.07-.2-.14-.2-.35,0-.61.04-1.21.05-1.39.01-.17.05-.26.13-.26.1,0,.11.08.12.17.01.13.01.31.07.48.22.78.88,1.1,1.56,1.1.96,0,1.39-.59,1.39-1.12,0-.48-.14-.94-1.03-1.58l-.5-.38c-1.19-.9-1.57-1.58-1.57-2.42,0-1.13.97-1.97,2.47-1.97.48,0,.77.06,1.07.11.17.02.31.06.43.07.1.01.12.06.12.13,0,.17-.05.46-.05,1.27,0,.23-.04.31-.12.31-.07,0-.11-.07-.12-.2-.01-.13-.08-.42-.24-.65-.18-.28-.52-.54-1.2-.54-.79,0-1.25.43-1.25,1.02,0,.44.22.84,1.08,1.43l.34.23c1.34.91,1.77,1.62,1.77,2.59,0,.62-.26,1.33-1.03,1.81-.54.32-1.15.41-1.7.41-.65,0-1.13-.07-1.58-.26Z"/>
        <path class="cls-1" d="m70.81,1.25c-.14-.38-.25-.62-.42-.72-.12-.07-.31-.08-.41-.1-.11,0-.17-.04-.17-.11s.08-.11.24-.11c.56,0,1.16.04,1.27.04.13,0,.65-.04,1.25-.04.14,0,.22.05.22.11,0,.07-.07.11-.18.11-.1.01-.14.01-.26.05-.1.02-.13.11-.13.22,0,.13.11.44.24.91.17.61,1.12,3.56,1.34,4.22l2.03-5.21c.11-.29.19-.37.28-.37.11,0,.17.16.31.48l2.19,5.05c.23-.76,1.02-3.26,1.37-4.43.08-.26.12-.46.12-.6,0-.18-.1-.32-.53-.32-.1,0-.18-.05-.18-.11s.07-.11.24-.11c.58,0,1.04.04,1.14.04.07,0,.58-.04.94-.04.12,0,.19.05.19.11,0,.07-.06.11-.14.11-.11.01-.25.01-.37.06-.26.08-.38.43-.61,1.04-.49,1.27-1.57,4.43-2.14,6.02-.13.36-.19.5-.32.5-.12,0-.18-.13-.35-.49l-2.19-5c-.25.65-1.57,3.98-2.03,4.95-.19.41-.26.54-.4.54-.12,0-.17-.12-.28-.42l-2.25-6.39Z"/>
        <path class="cls-1" d="m82.99,3.17c0-1.56,0-1.8-.02-2.13-.02-.34-.13-.5-.36-.55-.11-.02-.24-.04-.37-.05-.11,0-.17-.04-.17-.12,0-.06.07-.1.24-.1.42,0,1.14.04,1.4.04.24,0,.95-.04,1.36-.04.14,0,.2.04.2.1,0,.08-.06.12-.17.12-.11.01-.16.01-.28.04-.29.05-.37.23-.4.58-.04.32-.04.56-.04,2.12v1.8c0,.96.01,1.74.06,2.17.02.28.11.49.42.53.16.04.3.04.46.05.13,0,.18.06.18.11,0,.07-.08.11-.2.11-.71,0-1.39-.04-1.64-.04-.2,0-.92.04-1.34.04-.14,0-.22-.04-.22-.11,0-.05.05-.11.18-.11.14-.01.23-.01.32-.04.2-.05.3-.23.32-.52.06-.43.06-1.2.06-2.19v-1.8Z"/>
        <path class="cls-1" d="m90.36,4.97c0,.91,0,1.71.05,2.16.04.28.1.5.42.54.14.02.36.04.52.05.12,0,.18.05.18.1,0,.07-.07.12-.22.12-.7,0-1.43-.04-1.69-.04-.24,0-.97.04-1.38.04-.14,0-.22-.05-.22-.12,0-.05.05-.1.18-.1.14-.01.26-.01.36-.04.23-.05.29-.26.32-.56.05-.43.05-1.2.05-2.15V.82c-.4,0-1.19,0-1.67.04-.61.05-.79.1-.94.36-.07.13-.1.22-.14.34-.02.07-.06.12-.12.12-.07,0-.1-.06-.1-.18.01-.22.2-1.07.23-1.2.02-.14.06-.22.12-.22.08,0,.18.1.44.12.29.04.72.06,1.08.06h4.25c.34,0,.56-.04.72-.06.16-.02.24-.05.3-.05.07,0,.08.06.08.24,0,.2-.05.95-.05,1.21-.01.11-.04.17-.11.17-.08,0-.1-.06-.11-.2,0-.04-.01-.08-.01-.13-.02-.28-.28-.55-1.16-.56-.29-.02-.73-.04-1.39-.05v4.15Z"/>
        <path class="cls-1" d="m100.32,3.43s.07-.02.07-.07v-.22c0-1.55,0-1.81-.02-2.13-.02-.34-.11-.47-.46-.54-.08-.01-.26-.02-.4-.04-.13,0-.19-.05-.19-.12s.07-.1.22-.1c.59,0,1.29.04,1.56.04.22,0,.98-.04,1.42-.04.14,0,.2.02.2.1s-.05.12-.18.12c-.11.01-.19.01-.31.04-.29.04-.37.19-.4.54-.02.32-.02.6-.02,2.16v1.8c0,.95,0,1.71.06,2.15.02.3.1.52.41.56.14.02.38.02.53.04.12,0,.17.06.17.11,0,.07-.08.11-.2.11-.7,0-1.44-.04-1.71-.04-.23,0-.91.04-1.36.04-.16,0-.22-.04-.22-.11,0-.05.04-.11.17-.11.14-.01.28-.01.37-.04.22-.05.28-.26.31-.58.06-.42.06-1.18.06-2.11v-.88s-.04-.06-.07-.06h-3.89s-.07.01-.07.06v.91c0,.95,0,1.65.06,2.1.02.29.11.5.42.54.16.04.37.04.52.05.12,0,.18.06.18.11,0,.07-.08.11-.22.11-.67,0-1.44-.04-1.7-.04-.22,0-.96.04-1.38.04-.12,0-.2-.04-.2-.11,0-.05.04-.11.17-.11.16-.01.28-.01.37-.04.22-.05.29-.28.31-.58.06-.42.06-1.19.06-2.13v-1.8c0-1.55,0-1.82-.02-2.15-.02-.35-.11-.48-.47-.55-.08-.02-.24-.02-.38-.04-.13,0-.18-.05-.18-.12s.08-.1.22-.1c.58,0,1.27.04,1.55.04s.98-.04,1.4-.04c.17,0,.23.04.23.11s-.08.11-.19.11c-.1.01-.23.02-.31.04-.29.04-.37.2-.4.55-.02.32-.02.62-.02,2.12v.22s.04.07.07.07h3.89Z"/>
      </g>
      <g>
        <path class="cls-1" d="m1.11,15.43c0-.24.04-.39.16-.39.11,0,.21.12.4.31.2.17,1.65,1.68,3.43,3.34.81.77,2.2,2.19,2.4,2.36l-.1-4.6c-.01-.63-.1-.84-.4-.96-.16-.05-.41-.05-.56-.06-.14,0-.19-.06-.19-.12,0-.09.12-.1.27-.1.55,0,1.11.04,1.38.04.14,0,.58-.04,1.11-.04.14,0,.24.02.24.11,0,.06-.05.11-.19.11-.11.01-.2.01-.31.04-.32.09-.42.3-.43.89-.05,1.59-.07,4.36-.11,6.57,0,.29-.06.38-.16.38-.14,0-.3-.14-.54-.35-.69-.63-2.02-1.91-3.06-2.91-1.09-1.02-2.31-2.31-2.61-2.62l.11,4.31c.02.81.15,1.07.37,1.14.19.06.4.06.58.07.11,0,.19.04.19.1,0,.09-.1.12-.25.12-.65,0-1.08-.04-1.37-.04-.14,0-.71.04-1.24.04-.14,0-.24-.01-.24-.11,0-.06.06-.11.17-.11.14-.01.32-.01.47-.05.31-.09.36-.36.37-1.28.02-2.24.09-4.83.09-6.22Z"/>
        <path class="cls-1" d="m10.2,19.22c0-1.86,1.24-4.15,4.51-4.15,2.73,0,4.4,1.68,4.4,3.95,0,2.42-1.7,4.32-4.5,4.32-3.12,0-4.41-2.25-4.41-4.12Zm7.29.2c0-2.25-1.29-3.79-3.11-3.79-1.22,0-2.58.62-2.58,3.23,0,2.16,1.18,3.9,3.24,3.9.76,0,2.45-.31,2.45-3.34Z"/>
        <path class="cls-1" d="m21.15,18.28c0-1.61,0-1.85-.03-2.19-.02-.37-.12-.53-.46-.6-.14-.02-.29-.04-.42-.05-.12,0-.19-.04-.19-.11s.07-.11.24-.11c.56,0,1.32.04,1.53.04.34,0,1.22-.04,1.59-.04.75,0,1.48.07,2.04.43.35.22.81.76.81,1.48,0,.8-.37,1.5-1.45,2.31.92,1.14,1.69,2.12,2.34,2.78.6.63,1.01.68,1.21.73.11.01.2.01.29.03.1,0,.15.05.15.1,0,.09-.07.12-.21.12h-1.04c-.72,0-1.03-.07-1.34-.24-.43-.24-.84-.72-1.42-1.5-.45-.62-.91-1.28-1.07-1.47-.04-.05-.1-.06-.17-.06l-.88-.02c-.05,0-.09.02-.09.09v.22c0,.96,0,1.69.05,2.12.02.31.1.55.43.58.15.04.37.04.52.05.1,0,.14.05.14.1,0,.07-.07.12-.21.12-.66,0-1.53-.04-1.69-.04-.19,0-.94.04-1.38.04-.14,0-.21-.04-.21-.11,0-.05.05-.11.17-.11.16-.01.3-.01.4-.04.21-.05.29-.27.31-.6.06-.43.06-1.23.06-2.21v-1.86Zm1.4.81c0,.1.02.15.1.17.22.09.55.12.83.12.4,0,.57-.05.76-.19.31-.22.61-.68.61-1.53,0-1.5-1.03-1.9-1.65-1.9-.26,0-.46.01-.56.05-.06.02-.09.06-.09.15v3.12Z"/>
        <path class="cls-1" d="m29.16,18.28c0-1.59,0-1.86-.03-2.2-.02-.35-.1-.57-.47-.61l-.42-.04c-.12,0-.19-.04-.19-.11s.07-.1.24-.1c.52,0,1.27.04,1.6.04.36,0,.99-.04,1.71-.04,1.47,0,3.16.05,4.32,1.22.55.53,1.06,1.42,1.06,2.68s-.58,2.32-1.19,2.93c-.51.5-1.58,1.24-3.63,1.24-.8,0-1.78-.12-2.31-.12-.3,0-.97.04-1.43.04-.15,0-.21-.04-.21-.11,0-.05.06-.11.19-.11s.25-.01.38-.04c.42-.07.37-1.14.37-2.81v-1.86Zm1.47,1.17c0,1.12.01,1.9.03,2.1.01.3.02.62.14.8.12.2.58.41,1.38.41,1.04,0,1.73-.2,2.37-.76.68-.57.88-1.5.88-2.58,0-1.27-.55-2.1-1.02-2.57-.94-.92-2.12-1.07-2.94-1.07-.22,0-.62.04-.7.1-.11.09-.14.11-.14,2.27v1.3Z"/>
        <path class="cls-1" d="m39.03,18.28c0-1.61,0-1.86-.03-2.21-.02-.35-.14-.52-.37-.57-.11-.02-.25-.04-.39-.05-.11,0-.17-.04-.17-.12,0-.06.07-.1.25-.1.43,0,1.18.04,1.45.04.25,0,.98-.04,1.4-.04.15,0,.21.04.21.1,0,.09-.06.12-.17.12-.11.01-.16.01-.29.04-.3.05-.39.24-.41.6-.04.34-.04.58-.04,2.2v1.86c0,.99.01,1.8.06,2.25.03.29.11.51.43.55.16.04.31.04.47.05.14,0,.19.06.19.11,0,.07-.09.11-.21.11-.73,0-1.44-.04-1.7-.04-.21,0-.96.04-1.39.04-.15,0-.22-.04-.22-.11,0-.05.05-.11.19-.11.15-.01.24-.01.34-.04.21-.05.31-.24.33-.53.06-.45.06-1.24.06-2.27v-1.86Z"/>
        <path class="cls-1" d="m43.85,22.2c-1.08-.91-1.37-2.07-1.37-3.12,0-.72.24-1.97,1.29-2.91.82-.71,1.88-1.11,3.49-1.11.67,0,1.09.04,1.59.11.42.06.75.14,1.08.17.11.01.16.06.16.12,0,.09-.02.24-.05.61-.01.35-.01.96-.04,1.18-.01.16-.04.25-.14.25-.09,0-.14-.09-.14-.24-.01-.31-.11-.68-.41-.98-.36-.38-1.19-.66-2.2-.66-.91,0-1.52.21-1.99.62-.76.68-.99,1.66-.99,2.71,0,2.45,1.83,3.71,3.39,3.71.97,0,1.52-.1,1.94-.57.19-.2.31-.5.36-.72.05-.19.09-.22.17-.22.07,0,.11.07.11.16,0,.14-.14,1.08-.25,1.47-.05.19-.1.24-.29.31-.43.17-1.25.24-1.95.24-1.49,0-2.77-.29-3.79-1.14Z"/>
        <path class="cls-1" d="m58.61,20.14c0,.94,0,1.78.05,2.24.04.29.1.52.43.56.15.02.37.04.53.05.12,0,.19.05.19.1,0,.07-.07.12-.22.12-.72,0-1.48-.04-1.75-.04-.25,0-1.01.04-1.43.04-.15,0-.22-.05-.22-.12,0-.05.05-.1.19-.1.15-.01.27-.01.37-.04.24-.05.3-.27.33-.58.05-.45.05-1.24.05-2.22v-4.3c-.41,0-1.23,0-1.73.04-.63.05-.82.1-.97.37-.07.14-.1.22-.15.35-.03.07-.06.12-.12.12-.07,0-.1-.06-.1-.19.01-.22.21-1.11.24-1.24.03-.15.06-.22.12-.22.09,0,.19.1.46.12.3.04.75.06,1.12.06h4.4c.35,0,.58-.04.75-.06s.25-.05.31-.05c.07,0,.09.06.09.25,0,.21-.05.98-.05,1.25-.01.11-.04.17-.11.17-.09,0-.1-.06-.11-.21,0-.04-.01-.09-.01-.14-.03-.29-.29-.57-1.21-.58-.3-.02-.76-.04-1.44-.05v4.3Z"/>
        <path class="cls-1" d="m63.36,18.28c0-1.61,0-1.9-.03-2.25-.02-.35-.11-.48-.45-.56-.1-.02-.27-.02-.42-.04-.12,0-.19-.04-.19-.11s.07-.1.25-.1c.52,0,1.02.04,1.56.04.34,0,2.61,0,2.81-.01.21-.02.4-.05.5-.06.06-.01.12-.05.17-.05.06,0,.07.05.07.1,0,.07-.07.22-.1.67-.01.2-.03.41-.05.73,0,.06-.02.17-.12.17-.07,0-.1-.06-.11-.2,0-.05,0-.21-.06-.35-.07-.2-.17-.31-.71-.37-.21-.02-1.33-.05-1.58-.05-.05,0-.07.04-.07.11v2.57c0,.07.01.11.07.11.26,0,1.45,0,1.73-.01.31-.02.47-.06.57-.17.07-.1.12-.14.17-.14s.07.02.07.09c0,.07-.05.31-.09.82,0,.21-.04.66-.04.75s-.01.2-.11.2c-.07,0-.11-.11-.11-.17-.01-.1-.01-.16-.04-.29-.06-.24-.19-.4-.62-.43-.22-.02-1.27-.04-1.54-.04-.06,0-.07.05-.07.11v.81c0,.36-.01,1.23,0,1.55.03.73.19.89,1.33.89.29,0,.75,0,1.02-.12.29-.14.41-.35.5-.8.02-.11.05-.17.14-.17s.09.1.09.21c0,.27-.09,1.03-.15,1.24-.07.27-.17.27-.58.27-1.08,0-2.01-.06-3.12-.06-.45,0-.9.04-1.42.04-.15,0-.22-.04-.22-.11,0-.05.04-.11.19-.11.15-.01.29-.01.38-.04.22-.05.29-.29.32-.66.05-.43.05-1.24.05-2.15v-1.86Z"/>
        <path class="cls-1" d="m69.79,15.43c0-.24.04-.39.16-.39.11,0,.21.12.4.31.2.17,1.65,1.68,3.43,3.34.81.77,2.2,2.19,2.4,2.36l-.1-4.6c-.01-.63-.1-.84-.4-.96-.16-.05-.41-.05-.56-.06-.14,0-.19-.06-.19-.12,0-.09.12-.1.27-.1.55,0,1.11.04,1.38.04.14,0,.58-.04,1.11-.04.14,0,.24.02.24.11,0,.06-.05.11-.19.11-.11.01-.2.01-.31.04-.32.09-.42.3-.43.89-.05,1.59-.07,4.36-.11,6.57,0,.29-.06.38-.16.38-.14,0-.3-.14-.53-.35-.69-.63-2.02-1.91-3.06-2.91-1.09-1.02-2.31-2.31-2.61-2.62l.11,4.31c.02.81.15,1.07.37,1.14.19.06.4.06.58.07.11,0,.19.04.19.1,0,.09-.1.12-.25.12-.65,0-1.08-.04-1.37-.04-.14,0-.71.04-1.24.04-.14,0-.24-.01-.24-.11,0-.06.06-.11.17-.11.14-.01.32-.01.47-.05.31-.09.36-.36.37-1.28.02-2.24.09-4.83.09-6.22Z"/>
        <path class="cls-1" d="m78.89,19.22c0-1.86,1.24-4.15,4.51-4.15,2.73,0,4.4,1.68,4.4,3.95,0,2.42-1.7,4.32-4.5,4.32-3.12,0-4.41-2.25-4.41-4.12Zm7.29.2c0-2.25-1.29-3.79-3.11-3.79-1.22,0-2.58.62-2.58,3.23,0,2.16,1.18,3.9,3.24,3.9.76,0,2.45-.31,2.45-3.34Z"/>
        <path class="cls-1" d="m89.84,18.28c0-1.61,0-1.85-.03-2.19-.02-.37-.12-.53-.46-.6-.14-.02-.29-.04-.42-.05-.12,0-.19-.04-.19-.11s.07-.11.24-.11c.56,0,1.32.04,1.53.04.34,0,1.22-.04,1.59-.04.75,0,1.48.07,2.04.43.35.22.81.76.81,1.48,0,.8-.37,1.5-1.45,2.31.92,1.14,1.69,2.12,2.34,2.78.6.63,1.01.68,1.21.73.11.01.2.01.29.03.1,0,.15.05.15.1,0,.09-.07.12-.21.12h-1.04c-.72,0-1.03-.07-1.34-.24-.43-.24-.84-.72-1.42-1.5-.45-.62-.91-1.28-1.07-1.47-.04-.05-.1-.06-.17-.06l-.88-.02c-.05,0-.09.02-.09.09v.22c0,.96,0,1.69.05,2.12.02.31.1.55.43.58.15.04.37.04.52.05.1,0,.14.05.14.1,0,.07-.07.12-.21.12-.66,0-1.53-.04-1.69-.04-.19,0-.94.04-1.38.04-.14,0-.21-.04-.21-.11,0-.05.05-.11.17-.11.16-.01.3-.01.4-.04.21-.05.29-.27.31-.6.06-.43.06-1.23.06-2.21v-1.86Zm1.4.81c0,.1.02.15.1.17.22.09.55.12.83.12.4,0,.57-.05.76-.19.31-.22.61-.68.61-1.53,0-1.5-1.03-1.9-1.65-1.9-.26,0-.46.01-.56.05-.06.02-.09.06-.09.15v3.12Z"/>
        <path class="cls-1" d="m97.67,23.07c-.17-.07-.21-.15-.21-.36,0-.63.04-1.25.05-1.44.01-.17.05-.27.14-.27.1,0,.11.09.12.17.01.14.01.32.07.5.22.81.91,1.14,1.61,1.14.99,0,1.44-.61,1.44-1.16,0-.5-.15-.97-1.07-1.64l-.52-.4c-1.23-.93-1.63-1.64-1.63-2.51,0-1.17,1.01-2.04,2.56-2.04.5,0,.8.06,1.11.11.17.02.32.06.45.07.1.01.12.06.12.14,0,.17-.05.47-.05,1.32,0,.24-.04.32-.12.32-.07,0-.11-.07-.12-.21-.01-.14-.09-.43-.25-.67-.19-.29-.53-.56-1.24-.56-.82,0-1.29.45-1.29,1.06,0,.46.22.87,1.12,1.48l.35.24c1.39.94,1.84,1.68,1.84,2.68,0,.65-.27,1.38-1.07,1.88-.56.34-1.19.42-1.76.42-.67,0-1.17-.07-1.64-.27Z"/>
      </g>
    </g>
  </g>
</svg>