
<svg {...props} viewBox="0 0 145.29 8.66">
  
  <g id="Layer_1-2" data-name="Layer 1">
    <g>
      <path class="cls-1" d="m1.53,8.24c-.47-.28-.84-.66-1.12-1.15-.28-.49-.41-1.03-.41-1.62,0-.94.24-1.78.72-2.54.48-.76,1.13-1.35,1.95-1.78.82-.43,1.72-.64,2.69-.64.42,0,.86.08,1.31.24.04.02.13.05.27.09.14.04.27.07.38.07s.21-.02.3-.07c.14-.08.25-.12.35-.12s.14.04.14.12c0,.06-.02.1-.05.14-.14.18-.31.48-.49.9-.18.42-.32.78-.41,1.1-.04.18-.13.26-.28.26-.07,0-.13-.05-.16-.16-.04-.1-.05-.24-.03-.41.02-.38-.06-.73-.26-1.04-.13-.21-.29-.38-.48-.5-.19-.13-.4-.19-.61-.19-.66,0-1.25.27-1.79.82-.54.54-.96,1.23-1.26,2.05-.3.82-.46,1.64-.46,2.44,0,.65.15,1.13.44,1.45.3.32.71.48,1.24.48.46,0,.9-.15,1.31-.44s.82-.71,1.23-1.25c.02-.04.06-.09.1-.14.04-.06.08-.1.11-.13.03-.03.07-.04.11-.04.06,0,.11.03.14.09.03.06.04.13.02.22-.1.38-.26.83-.49,1.34-.23.51-.4.76-.49.76-.07,0-.13-.02-.19-.05-.05-.04-.09-.06-.11-.08-.11-.07-.26-.11-.43-.11-.1,0-.21.02-.35.06-.14.04-.24.07-.29.08-.4.1-.77.16-1.1.16-.56,0-1.07-.14-1.54-.41Z"/>
      <path class="cls-1" d="m7.73,8.5c-.15-.11-.23-.25-.23-.41,0-.22.06-.5.17-.86l1.61-5.21c.09-.31.13-.54.13-.68,0-.1-.04-.17-.12-.23-.08-.06-.2-.11-.35-.17-.08-.03-.14-.06-.17-.08-.04-.02-.05-.06-.05-.1,0-.05.02-.09.05-.13.04-.04.12-.08.26-.13.27-.09.64-.19,1.09-.32.46-.12.74-.19.85-.19.09,0,.16,0,.22.02s.09.06.09.13c0,.14-.04.3-.11.48l-1.67,5.1v.05s0,.05.02.05c.04,0,.07-.02.1-.07.46-.74.96-1.33,1.48-1.79s1.01-.69,1.47-.69c.31,0,.55.1.73.3.17.2.26.45.26.76,0,.59-.11,1.16-.34,1.72-.22.55-.52,1.06-.88,1.52-.07.1-.23.23-.49.41s-.51.33-.77.47c-.26.14-.45.2-.56.2-.15,0-.31-.07-.48-.2-.17-.13-.25-.25-.25-.35,0-.07.05-.19.14-.34.1-.16.19-.23.28-.23.06,0,.12.01.16.04.04.02.08.05.11.09.04.04.07.07.09.09.02.02.06.05.11.09s.1.08.14.1c.05.02.1.04.14.04.13,0,.27-.2.43-.61.16-.4.29-.88.4-1.42.11-.54.16-.99.16-1.34,0-.3-.1-.44-.31-.44-.18,0-.42.21-.72.62-.3.42-.71,1.06-1.25,1.94-.45.73-.7,1.14-.77,1.25-.29.46-.54.7-.77.7-.13,0-.27-.06-.42-.17Z"/>
      <path class="cls-1" d="m14.11,8.5c-.16-.11-.25-.24-.25-.38,0-.1.03-.24.08-.4l1.21-3.13s.02-.08.02-.13c0-.1-.05-.14-.16-.14-.14,0-.26.02-.35.07-.09.05-.21.13-.36.25-.03.03-.08.05-.13.05-.08,0-.12-.05-.12-.16,0-.15.07-.31.2-.46.14-.16.32-.3.54-.43.18-.1.38-.19.58-.25.2-.06.4-.1.58-.1.21,0,.36.06.47.17.1.11.16.27.16.47,0,.22-.06.47-.18.76l-.46,1.09v.05s0,.05.04.05c.05,0,.08-.02.11-.07.46-.82.88-1.45,1.28-1.88.4-.43.8-.64,1.21-.64.25,0,.44.07.58.22.14.14.2.33.2.55,0,.21-.05.41-.14.61-.1.2-.21.36-.35.49s-.27.19-.4.19c-.09,0-.16-.04-.2-.12s-.09-.21-.12-.38c-.06-.35-.17-.53-.32-.53-.14,0-.27.08-.4.25-.13.16-.3.42-.51.77-.26.41-.62,1.02-1.08,1.85l-.32.56c-.16.28-.32.51-.49.68s-.32.26-.46.26-.29-.06-.45-.17Z"/>
      <path class="cls-1" d="m19.15,8.44c-.15-.14-.23-.29-.23-.44,0-.09.02-.17.06-.25.14-.32.3-.69.47-1.1.17-.41.29-.7.36-.87l.41-.98s0-.07-.06-.07c-.08,0-.18.03-.29.08-.11.06-.27.14-.47.26-.08.04-.14.06-.17.06-.11,0-.17-.03-.17-.1,0-.1.14-.28.41-.52s.59-.48.94-.72c.36-.24.65-.39.87-.47.06-.02.11-.02.14-.02.16,0,.3.06.43.19.13.13.17.26.12.38l-1.34,3.31c-.02.06-.04.12-.04.18,0,.02,0,.05.03.07s.04.03.05.03c.1,0,.28-.1.55-.29.27-.19.5-.38.67-.55.02-.02.04-.04.05-.04.04,0,.08.02.11.05.03.04.05.07.05.11,0,.18-.15.43-.44.74-.29.31-.63.58-1.02.81-.39.23-.72.35-1,.35-.18,0-.35-.07-.5-.21Zm2.26-6.22c-.12-.14-.18-.3-.18-.47,0-.27.1-.51.29-.72.2-.21.43-.31.71-.31.18,0,.33.07.44.22.11.15.16.32.16.51,0,.26-.1.49-.29.69-.2.2-.43.29-.69.29-.18,0-.32-.07-.44-.21Z"/>
      <path class="cls-1" d="m22.33,8.42c-.2-.15-.31-.35-.31-.6,0-.21.05-.38.14-.52.1-.14.22-.21.36-.21.06,0,.12.03.19.09.07.06.17.16.29.29.03.02.1.09.21.2s.22.19.32.26c.11.06.21.1.31.1.26,0,.38-.15.38-.44,0-.18-.18-.52-.54-1.03-.36-.51-.54-.96-.54-1.34,0-.26.12-.55.37-.85.24-.3.53-.55.85-.76.32-.21.58-.31.78-.31s.38.04.58.13.35.19.47.31c.12.12.19.23.19.32,0,.14-.08.31-.25.5s-.32.28-.46.28c-.14,0-.3-.12-.47-.35-.07-.11-.16-.2-.28-.28-.11-.07-.22-.11-.32-.11-.11,0-.2.04-.26.11-.06.08-.1.16-.1.26,0,.07.04.17.12.29s.2.28.35.48c.08.1.14.17.17.22.24.3.41.56.51.76s.15.4.15.59c0,.22-.12.48-.36.78-.24.3-.54.55-.91.76-.37.21-.74.31-1.12.31-.34,0-.62-.08-.82-.23Z"/>
      <path class="cls-1" d="m26.46,8.4c-.16-.17-.24-.32-.24-.47,0-.1.04-.27.13-.49l1.13-3.02c.02-.07.04-.13.04-.17,0-.11-.06-.17-.17-.17l-.58-.02c-.2,0-.3-.09-.3-.24,0-.02.03-.07.09-.14.06-.07.13-.13.22-.19.09-.06.18-.08.26-.08h.59c.11,0,.19-.02.23-.05.04-.03.1-.12.16-.25l.34-.67c.1-.18.24-.35.43-.51.19-.16.36-.25.49-.25.09,0,.16.04.2.11.05.07.07.16.07.26,0,.04,0,.1-.02.18l-.29.92c-.02.08-.02.12-.02.13,0,.06.02.09.05.11.03.02.08.03.16.03.18,0,.44.02.76.06.16.02.26.05.31.09.04.04.07.09.07.16,0,.03-.03.07-.08.13-.06.05-.14.09-.24.1-.3.03-.54.05-.72.06-.15,0-.26.03-.34.06-.07.03-.12.09-.16.17l-.9,2.48c-.06.17-.08.3-.08.38,0,.12.06.18.18.18s.3-.09.53-.28.46-.39.68-.61c.05-.04.08-.05.1-.04.04,0,.07.04.1.08.02.05.03.1.01.14-.04.21-.22.48-.53.8s-.68.62-1.08.86c-.4.25-.76.37-1.06.37-.18,0-.34-.08-.5-.25Z"/>
      <path class="cls-1" d="m30.83,8.57c-.11-.06-.21-.14-.28-.25s-.11-.22-.11-.35c.02-.12.05-.24.1-.36l1.27-3.04c.02-.06.02-.11.02-.13,0-.1-.06-.14-.17-.14-.12,0-.26.03-.43.1s-.33.18-.51.36c-.02.04-.06.06-.12.06-.02,0-.05,0-.07-.03-.02-.02-.04-.05-.04-.09,0-.08.04-.2.16-.37s.22-.29.31-.38c.24-.22.47-.39.69-.5.22-.11.5-.17.85-.17.21,0,.37.06.5.19s.19.29.19.49c0,.12-.03.26-.1.41l-.68,1.58v.05s0,.05.04.05c.04,0,.07-.02.1-.07.36-.6.67-1.09.94-1.46.26-.37.54-.67.83-.9.29-.23.6-.34.92-.34.29,0,.51.09.65.26.15.18.22.4.22.67,0,.3-.08.58-.23.86l-.17.38v.05s0,.05.05.05c.05,0,.09-.02.12-.06.44-.7.86-1.25,1.25-1.64.39-.39.82-.58,1.27-.58.27,0,.47.07.61.22.13.15.2.35.2.61,0,.28-.08.61-.24.98l-.83,1.94c-.05.1-.07.19-.07.25,0,.08.04.12.12.12s.22-.07.41-.21c.2-.14.37-.28.53-.43.1-.12.18-.18.23-.18.02,0,.05.01.08.04.03.03.04.06.04.1-.02.18-.09.34-.22.47-.37.43-.77.78-1.22,1.04-.44.26-.89.4-1.33.4-.12,0-.25-.05-.39-.14-.14-.09-.21-.2-.21-.32,0-.02,0-.06.02-.11l1.63-3.61c.03-.06.05-.13.05-.2,0-.06-.02-.12-.05-.16-.04-.04-.08-.06-.13-.07-.19,0-.48.29-.88.86-.16.24-.39.6-.68,1.07s-.51.82-.65,1.06l-.53.88c-.13.21-.3.39-.52.53-.22.15-.39.22-.52.22-.12,0-.25-.06-.38-.19-.14-.12-.2-.25-.2-.37,0-.11.05-.29.14-.54l1.3-3.13c.03-.07.05-.14.05-.22,0-.06-.02-.1-.05-.14-.03-.04-.08-.05-.13-.05-.2,0-.54.33-1.01.98-.16.22-.35.52-.57.91-.22.39-.44.78-.65,1.17l-.41.76c-.15.27-.29.48-.43.61-.13.14-.27.2-.4.2-.08,0-.18-.03-.29-.09Z"/>
      <path class="cls-1" d="m39.56,8.45c-.16-.14-.25-.27-.25-.41,0-.35.16-.78.49-1.28.33-.5.92-1.22,1.76-2.15.35-.38.68-.68.98-.91.3-.23.53-.35.68-.35.21,0,.44.1.71.31.06.07.1.11.11.11h.02s.03-.01.04-.03c0-.02.02-.04.02-.05.1-.2.16-.33.18-.38.05-.09.15-.13.3-.13.18,0,.37.06.58.18.21.12.31.23.31.34,0,.03,0,.07-.02.12l-1.2,3.26c-.02.06-.04.1-.04.14,0,.11.06.17.17.17.09,0,.23-.07.41-.2.19-.14.38-.31.58-.52.02-.02.04-.04.06-.04.04,0,.07.02.1.05.02.04.04.08.04.14,0,.11-.07.27-.22.46-.15.2-.34.39-.58.59-.3.24-.58.43-.86.57-.28.14-.51.21-.7.21s-.36-.07-.53-.22-.26-.29-.26-.44c0-.05.02-.14.06-.28.02-.06.06-.17.12-.32.06-.15.11-.26.14-.34l.14-.34s.01-.02.01-.05c0-.03-.01-.05-.03-.06-.02,0-.04,0-.05.01-.62.7-1.16,1.22-1.6,1.54-.44.32-.83.49-1.18.49-.17,0-.33-.07-.5-.2Zm2.41-1.45c.3-.26.6-.57.9-.95.26-.31.46-.59.61-.83s.23-.42.23-.52c0-.07-.08-.18-.24-.31-.18-.14-.33-.22-.44-.22-.12,0-.29.07-.5.22s-.42.31-.61.5c-.26.26-.48.59-.67,1-.19.41-.28.77-.28,1.08,0,.14.03.24.1.31.06.07.15.11.26.11.14,0,.35-.13.65-.38Z"/>
      <path class="cls-1" d="m45.81,8.42c-.2-.15-.31-.35-.31-.6,0-.21.05-.38.14-.52.1-.14.22-.21.36-.21.06,0,.12.03.19.09.07.06.17.16.29.29.03.02.1.09.21.2s.22.19.32.26c.11.06.21.1.31.1.26,0,.38-.15.38-.44,0-.18-.18-.52-.54-1.03-.36-.51-.54-.96-.54-1.34,0-.26.12-.55.37-.85.24-.3.53-.55.85-.76.32-.21.58-.31.78-.31s.38.04.58.13.35.19.47.31c.12.12.19.23.19.32,0,.14-.08.31-.25.5s-.32.28-.46.28c-.14,0-.3-.12-.47-.35-.07-.11-.16-.2-.28-.28-.11-.07-.22-.11-.32-.11-.11,0-.2.04-.26.11-.06.08-.1.16-.1.26,0,.07.04.17.12.29s.2.28.35.48c.08.1.14.17.17.22.24.3.41.56.51.76s.15.4.15.59c0,.22-.12.48-.36.78-.24.3-.54.55-.91.76-.37.21-.74.31-1.12.31-.34,0-.62-.08-.82-.23Z"/>
      <path class="cls-1" d="m59.98,3.53c.1.17.15.42.15.74,0,.47-.14.98-.43,1.53-.28.55-.65,1.08-1.1,1.59-.34.39-.69.7-1.05.92-.36.22-.71.34-1.04.34s-.57-.11-.74-.32c-.17-.21-.25-.49-.23-.82-.26.36-.57.64-.92.84-.35.2-.71.3-1.1.3-.26,0-.47-.09-.65-.28-.18-.19-.26-.44-.26-.76,0-.27.06-.57.19-.9l.66-1.73c.02-.07.04-.12.04-.16,0-.07-.03-.11-.08-.11-.05,0-.14.03-.28.09-.14.06-.26.13-.36.2-.14.1-.24.14-.28.14-.1,0-.16-.05-.16-.16,0-.11.08-.25.25-.42.3-.3.67-.6,1.11-.88.44-.28.78-.42,1.03-.42.32,0,.48.16.48.49,0,.19-.06.43-.17.72l-.9,2.36c-.05.13-.07.24-.07.35,0,.15.04.27.13.35s.2.12.34.12c.22,0,.47-.18.76-.55.29-.36.52-.77.68-1.23.04-.13.09-.37.16-.72.02-.22.06-.45.12-.67,0-.07.04-.17.11-.29s.14-.22.23-.3c.14-.13.27-.22.38-.27.11-.05.28-.08.49-.08.11,0,.2.04.28.13.07.09.11.22.11.38s-.03.36-.1.56c-.06.18-.13.36-.23.55-.1.19-.19.37-.29.54l-.16.29c-.18.34-.27.64-.25.9,0,.23.03.41.12.55.09.13.23.2.42.2.24,0,.49-.13.74-.38s.47-.57.64-.95c.17-.38.26-.75.26-1.1,0-.14-.02-.27-.05-.37-.03-.1-.08-.22-.14-.36l-.14-.26c-.09-.13-.13-.22-.13-.28,0-.06.06-.15.19-.26s.28-.21.45-.3c.17-.09.31-.13.43-.13.14,0,.25.09.35.26Z"/>
      <path class="cls-1" d="m60.44,8.44c-.15-.14-.23-.29-.23-.44,0-.09.02-.17.06-.25.14-.32.3-.69.47-1.1.17-.41.29-.7.36-.87l.41-.98s0-.07-.06-.07c-.08,0-.18.03-.29.08-.11.06-.27.14-.47.26-.08.04-.14.06-.17.06-.11,0-.17-.03-.17-.1,0-.1.14-.28.41-.52s.59-.48.94-.72c.36-.24.65-.39.87-.47.06-.02.11-.02.14-.02.16,0,.3.06.43.19.13.13.17.26.12.38l-1.34,3.31c-.02.06-.04.12-.04.18,0,.02,0,.05.03.07s.04.03.05.03c.1,0,.28-.1.55-.29.27-.19.5-.38.67-.55.02-.02.04-.04.05-.04.04,0,.08.02.11.05.03.04.05.07.05.11,0,.18-.15.43-.44.74-.29.31-.63.58-1.02.81-.39.23-.72.35-1,.35-.18,0-.35-.07-.5-.21Zm2.26-6.22c-.12-.14-.18-.3-.18-.47,0-.27.1-.51.29-.72.2-.21.43-.31.71-.31.18,0,.33.07.44.22.11.15.16.32.16.51,0,.26-.1.49-.29.69-.2.2-.43.29-.69.29-.18,0-.32-.07-.44-.21Z"/>
      <path class="cls-1" d="m64.23,8.4c-.16-.17-.24-.32-.24-.47,0-.1.04-.27.13-.49l1.13-3.02c.02-.07.04-.13.04-.17,0-.11-.06-.17-.17-.17l-.58-.02c-.2,0-.3-.09-.3-.24,0-.02.03-.07.09-.14.06-.07.13-.13.22-.19.09-.06.18-.08.26-.08h.59c.11,0,.19-.02.23-.05.04-.03.1-.12.16-.25l.34-.67c.1-.18.24-.35.43-.51.19-.16.36-.25.49-.25.09,0,.16.04.2.11.05.07.07.16.07.26,0,.04,0,.1-.02.18l-.29.92c-.02.08-.02.12-.02.13,0,.06.02.09.05.11.03.02.08.03.16.03.18,0,.44.02.76.06.16.02.26.05.31.09.04.04.07.09.07.16,0,.03-.03.07-.08.13-.06.05-.14.09-.24.1-.3.03-.54.05-.72.06-.15,0-.26.03-.34.06-.07.03-.12.09-.16.17l-.9,2.48c-.06.17-.08.3-.08.38,0,.12.06.18.18.18s.3-.09.53-.28.46-.39.68-.61c.05-.04.08-.05.1-.04.04,0,.07.04.1.08.02.05.03.1.01.14-.04.21-.22.48-.53.8s-.68.62-1.08.86c-.4.25-.76.37-1.06.37-.18,0-.34-.08-.5-.25Z"/>
      <path class="cls-1" d="m68.17,8.5c-.15-.11-.23-.25-.23-.41,0-.22.06-.5.17-.86l1.61-5.21c.09-.31.13-.54.13-.68,0-.1-.04-.17-.12-.23-.08-.06-.2-.11-.35-.17-.08-.03-.14-.06-.17-.08-.04-.02-.05-.06-.05-.1,0-.05.02-.09.05-.13.04-.04.12-.08.26-.13.27-.09.64-.19,1.09-.32.46-.12.74-.19.85-.19.09,0,.16,0,.22.02s.09.06.09.13c0,.14-.04.3-.11.48l-1.67,5.1v.05s0,.05.02.05c.04,0,.07-.02.1-.07.46-.74.96-1.33,1.48-1.79s1.01-.69,1.47-.69c.31,0,.55.1.73.3.17.2.26.45.26.76,0,.59-.11,1.16-.34,1.72-.22.55-.52,1.06-.88,1.52-.07.1-.23.23-.49.41s-.51.33-.77.47c-.26.14-.45.2-.56.2-.15,0-.31-.07-.48-.2-.17-.13-.25-.25-.25-.35,0-.07.05-.19.14-.34.1-.16.19-.23.28-.23.06,0,.12.01.16.04.04.02.08.05.11.09.04.04.07.07.09.09.02.02.06.05.11.09s.1.08.14.1c.05.02.1.04.14.04.13,0,.27-.2.43-.61.16-.4.29-.88.4-1.42.11-.54.16-.99.16-1.34,0-.3-.1-.44-.31-.44-.18,0-.42.21-.72.62-.3.42-.71,1.06-1.25,1.94-.45.73-.7,1.14-.77,1.25-.29.46-.54.7-.77.7-.13,0-.27-.06-.42-.17Z"/>
      <path class="cls-1" d="m76.32,8.47s-.07-.07-.06-.12c.04-.1.16-.18.37-.24.26-.06.47-.17.63-.33.16-.16.29-.37.39-.63l1.79-4.82c.08-.21.12-.4.12-.56,0-.22-.09-.4-.26-.52-.17-.12-.44-.19-.8-.22-.23-.02-.35-.11-.35-.25,0-.05.04-.09.13-.13s.17-.06.26-.06l.96.02c.43.02.85.04,1.26.04.19,0,.33.08.41.25l2.38,5.29s.04.07.07.1c.03.04.05.05.08.05.06,0,.11-.06.14-.18.1-.26.26-.78.49-1.58.23-.8.41-1.5.53-2.11.04-.22.06-.4.06-.53,0-.28-.08-.49-.23-.62-.16-.14-.41-.24-.76-.3-.14-.02-.22-.08-.22-.17,0-.05.03-.09.1-.13s.14-.06.22-.06c.29,0,.6.02.94.05l.43.02c.14,0,.27,0,.37-.01s.19-.02.26-.02c.32-.03.6-.05.83-.05.16,0,.24.06.24.17,0,.06-.04.1-.13.14s-.18.06-.29.08c-.21.04-.38.1-.5.17-.13.07-.24.19-.34.36s-.2.42-.31.74c-.42,1.31-.87,2.77-1.36,4.37-.06.21-.1.36-.1.47,0,.14.06.32.17.52.1.18.19.31.29.41.04.03.09.07.14.11.06.04.08.09.08.13,0,.07-.02.12-.05.14s-.09.03-.17.03c-.26,0-.53.02-.82.05-.18.02-.36.04-.55.04-.21,0-.36-.05-.47-.14-.1-.1-.2-.26-.3-.49-.02-.06-.06-.16-.11-.28-.05-.12-.12-.29-.21-.49-1.19-2.87-1.84-4.4-1.94-4.57-.02-.03-.04-.07-.06-.1-.02-.04-.04-.05-.06-.05-.06,0-.12.09-.18.26-.23.58-.5,1.33-.8,2.24-.3.91-.52,1.65-.65,2.22-.02.12-.04.22-.04.31,0,.17.06.3.17.38.11.09.3.17.58.24.19.05.28.13.25.24,0,.06-.05.1-.13.13-.08.03-.15.05-.22.05-.26,0-.51,0-.73-.02-.18-.02-.32-.02-.43-.02-.18,0-.54.01-1.09.04h-.24c-.06.01-.12,0-.17-.04Z"/>
      <path class="cls-1" d="m86.51,8.44c-.27-.14-.48-.35-.64-.61-.16-.26-.24-.55-.24-.88,0-.51.15-1.05.44-1.63.29-.57.7-1.05,1.23-1.45.53-.39,1.13-.59,1.81-.59.54,0,.98.15,1.3.46.32.3.48.72.48,1.26s-.15,1.05-.44,1.63c-.29.57-.71,1.05-1.24,1.44-.54.39-1.15.58-1.84.58-.3,0-.59-.07-.86-.22Zm1.87-.92c.27-.45.5-.99.68-1.61s.28-1.18.28-1.66c0-.34-.14-.5-.41-.5-.22,0-.46.22-.74.67-.28.45-.52.98-.71,1.61s-.29,1.17-.29,1.64c0,.18.04.31.11.4.08.09.18.13.31.13.25,0,.51-.22.78-.67Z"/>
      <path class="cls-1" d="m91.4,8.5c-.16-.11-.25-.24-.25-.38,0-.1.03-.24.08-.4l1.21-3.13s.02-.08.02-.13c0-.1-.05-.14-.16-.14-.14,0-.26.02-.35.07-.09.05-.21.13-.36.25-.03.03-.08.05-.13.05-.08,0-.12-.05-.12-.16,0-.15.07-.31.2-.46.14-.16.32-.3.54-.43.18-.1.38-.19.58-.25.2-.06.4-.1.58-.1.21,0,.36.06.47.17.1.11.16.27.16.47,0,.22-.06.47-.18.76l-.46,1.09v.05s0,.05.04.05c.05,0,.08-.02.11-.07.46-.82.88-1.45,1.28-1.88.4-.43.8-.64,1.21-.64.25,0,.44.07.58.22s.21.33.21.55c0,.21-.05.41-.14.61-.1.2-.21.36-.35.49-.14.12-.28.19-.4.19-.09,0-.16-.04-.21-.12-.05-.08-.09-.21-.12-.38-.06-.35-.17-.53-.32-.53-.14,0-.27.08-.4.25s-.3.42-.51.77c-.26.41-.62,1.02-1.08,1.85l-.32.56c-.16.28-.32.51-.49.68s-.32.26-.46.26-.29-.06-.45-.17Z"/>
      <path class="cls-1" d="m96.02,8.36c-.18-.19-.27-.43-.27-.72,0-.44.12-.94.38-1.49.25-.55.59-1.09,1.03-1.61.35-.42.7-.73,1.03-.95.34-.22.65-.32.95-.32.14,0,.28.03.41.09s.25.13.36.2c.11.07.19.12.24.14.03.02.07.03.1.05.04.02.07.03.1.03s.06-.04.08-.11l.56-1.8s.02-.08.04-.13.03-.09.04-.13c.07-.22.11-.34.1-.35,0-.01,0-.03,0-.05,0-.15-.16-.29-.48-.42-.18-.06-.26-.12-.26-.18,0-.06.02-.1.07-.14s.14-.08.29-.13c.2-.06.54-.13,1.03-.22.49-.09.8-.14.92-.14.2,0,.3.06.3.17,0,.1-.04.26-.11.48l-2.17,6.44c-.02.07-.04.13-.04.18,0,.08.03.12.08.12.08,0,.23-.08.45-.23.22-.16.42-.33.61-.52.03-.03.05-.05.06-.05.04,0,.07.02.1.05.03.04.04.08.04.13,0,.19-.14.44-.43.74-.29.3-.62.57-1,.8-.38.23-.68.34-.92.34-.18,0-.36-.07-.54-.22-.18-.15-.26-.3-.26-.45,0-.04.02-.13.06-.28.06-.14.12-.28.19-.44.07-.16.14-.3.2-.41.06-.12.08-.14.05-.07,0-.02.01-.04.01-.06,0-.03-.01-.05-.04-.05-.03,0-.06.02-.08.06-.54.66-1.03,1.14-1.45,1.45s-.81.47-1.16.47c-.27,0-.5-.1-.68-.29Zm2.65-1.4c.36-.34.68-.75.94-1.22.26-.47.4-.87.4-1.21,0-.21-.05-.37-.14-.49-.09-.12-.22-.17-.38-.17-.23,0-.52.19-.86.57-.34.38-.64.83-.89,1.34-.25.51-.38.94-.38,1.3,0,.26.12.4.37.4.26,0,.58-.17.94-.52Z"/>
      <path class="cls-1" d="m102.77,8.44c-.15-.14-.23-.29-.23-.44,0-.09.02-.17.06-.25.14-.32.3-.69.47-1.1.17-.41.29-.7.36-.87l.41-.98s0-.07-.06-.07c-.08,0-.18.03-.29.08s-.27.14-.47.26c-.08.04-.14.06-.17.06-.11,0-.17-.03-.17-.1,0-.1.14-.28.41-.52.27-.24.59-.48.94-.72.36-.24.65-.39.87-.47.06-.02.11-.02.14-.02.16,0,.3.06.43.19.13.13.17.26.12.38l-1.34,3.31c-.02.06-.04.12-.04.18,0,.02,0,.05.03.07.02.02.04.03.05.03.1,0,.28-.1.55-.29.27-.19.5-.38.67-.55.02-.02.04-.04.05-.04.04,0,.08.02.11.05.03.04.05.07.05.11,0,.18-.15.43-.44.74-.29.31-.63.58-1.02.81-.39.23-.72.35-1,.35-.18,0-.35-.07-.5-.21Zm2.26-6.22c-.12-.14-.18-.3-.18-.47,0-.27.1-.51.29-.72.2-.21.43-.31.71-.31.18,0,.33.07.44.22.11.15.16.32.16.51,0,.26-.1.49-.29.69-.2.2-.43.29-.69.29-.18,0-.32-.07-.44-.21Z"/>
      <path class="cls-1" d="m106.82,8.43c-.25-.15-.45-.35-.59-.59-.14-.25-.21-.52-.2-.82.02-.65.17-1.26.46-1.83s.68-1.03,1.18-1.38c.49-.35,1.03-.52,1.61-.52.3,0,.55.07.74.2.19.14.29.31.29.52,0,.15-.05.3-.16.45-.11.15-.22.22-.33.22-.06,0-.12-.02-.16-.07s-.11-.14-.2-.29c-.09-.15-.18-.28-.28-.37-.1-.1-.2-.14-.29-.14-.22,0-.43.13-.65.4-.22.26-.39.6-.53,1.01-.14.41-.21.82-.21,1.22,0,.28.08.5.23.66.15.16.36.24.61.24.42,0,.79-.18,1.09-.55.06-.1.14-.14.23-.14.03,0,.06.01.08.04.02.02.04.06.04.1,0,.26-.11.53-.33.83-.22.3-.5.55-.83.75-.34.2-.66.3-.97.3-.29,0-.56-.07-.81-.22Z"/>
      <path class="cls-1" d="m113.96,8.47s-.06-.07-.05-.12c.03-.13.16-.21.37-.25.34-.07.58-.16.74-.27.16-.11.28-.28.35-.52l1.57-5.1c.13-.43.19-.72.19-.86,0-.08-.02-.14-.05-.17-.04-.03-.09-.05-.16-.05h-.56c-.26,0-.53.07-.8.22-.27.14-.51.32-.71.54-.02.02-.09.1-.21.22-.12.12-.23.22-.34.3-.11.08-.2.12-.28.12-.06,0-.09-.02-.11-.05-.02-.04-.02-.09-.01-.16.04-.13.1-.24.17-.32.22-.26.39-.5.51-.72.12-.22.25-.49.37-.8.07-.2.18-.3.32-.3.09,0,.18.04.29.13.1.08.17.14.2.16.02,0,.07.04.15.1.08.06.21.1.37.12.16.02.37.04.62.04h3.32c.43,0,.74-.02.92-.05.18-.04.33-.08.43-.14.09-.03.2-.1.35-.19.02,0,.06-.03.13-.08s.14-.07.19-.07c.1,0,.14.06.1.18-.02.08-.05.16-.1.25-.3.51-.54,1.04-.7,1.57-.04.14-.08.24-.13.3-.05.06-.1.1-.17.1-.07,0-.12-.03-.16-.1-.03-.07-.05-.18-.05-.33-.02-.34-.09-.6-.22-.76-.13-.16-.36-.25-.68-.25h-.6c-.13,0-.23.03-.31.08-.08.06-.15.16-.22.3s-.15.37-.25.67l-1.57,5.11c-.03.09-.05.18-.05.26,0,.14.05.24.16.32.1.08.27.15.5.22.08.02.14.05.17.09s.05.09.03.15c0,.06-.04.1-.1.13-.06.03-.12.05-.19.05-.3,0-.61-.01-.94-.04-.43-.02-.72-.02-.86-.02-.16,0-.45,0-.86.02-.32.02-.63.04-.94.04-.06,0-.12-.02-.16-.05Z"/>
      <path class="cls-1" d="m120.62,8.46c-.24-.14-.45-.32-.61-.54s-.25-.46-.25-.72c0-.65.16-1.27.47-1.88.31-.6.72-1.09,1.22-1.47s1.01-.56,1.54-.56c.44,0,.77.08.99.25s.33.38.33.64c0,.48-.26.85-.79,1.11-.53.26-1.2.48-2.03.65-.04,0-.07.02-.08.04-.02.02-.03.04-.05.08-.03.12-.06.25-.07.38,0,.3.07.54.23.74s.39.3.68.3c.22,0,.41-.05.59-.16.18-.11.37-.27.57-.47.08-.09.15-.13.2-.13.08,0,.12.04.12.12s-.01.14-.04.17c-.26.49-.59.89-.98,1.19-.39.31-.84.46-1.36.46-.22,0-.45-.07-.69-.2Zm2.05-3.43c.29-.2.45-.51.47-.92,0-.1-.03-.2-.09-.28-.06-.08-.14-.12-.25-.12-.18,0-.37.08-.56.25-.19.17-.35.39-.49.65s-.23.54-.27.82v.02s.03.06.08.05c.44-.12.81-.28,1.1-.49Z"/>
      <path class="cls-1" d="m125.03,8.55c-.12-.07-.23-.16-.32-.28-.09-.12-.13-.25-.13-.38,0-.09.02-.16.05-.23l1.21-3.01c.02-.07.04-.13.04-.17,0-.09-.05-.13-.14-.13-.41,0-.73.14-.97.42-.04.04-.08.06-.12.06-.08,0-.12-.04-.13-.12,0-.08.04-.2.16-.37s.22-.29.31-.38c.46-.45,1.02-.67,1.67-.67.22,0,.38.06.5.19.12.13.17.29.17.48,0,.12-.02.24-.07.36l-.64,1.57v.04s0,.03.02.04c.02.01.04.02.07.02.06,0,.11-.02.13-.06.47-.85.92-1.5,1.34-1.96.42-.46.87-.68,1.33-.68.3,0,.53.09.68.27.15.18.22.41.22.68,0,.24-.05.47-.14.68l-.9,2.12c-.05.1-.07.19-.07.25,0,.08.04.12.12.12.09,0,.24-.07.44-.22s.37-.28.49-.39c.1-.12.18-.18.23-.18.02,0,.05.02.08.05.03.03.04.06.04.1,0,.14-.05.29-.16.43-.36.42-.78.77-1.26,1.04-.48.27-.92.41-1.33.41-.14,0-.27-.05-.4-.16s-.2-.23-.2-.35c0-.06,0-.11.02-.13.12-.28.23-.53.34-.74.1-.22.2-.41.28-.58.06-.12.19-.41.41-.86.22-.46.4-.89.55-1.31.04-.1.06-.2.06-.29,0-.1-.05-.16-.16-.16-.13,0-.27.09-.42.26-.15.18-.3.37-.44.59-.14.22-.24.36-.29.42-.14.18-.37.55-.7,1.1s-.62,1.03-.86,1.45c-.14.25-.28.44-.4.57-.12.13-.25.2-.39.2-.08,0-.18-.03-.31-.1Z"/>
      <path class="cls-1" d="m131.84,8.44c-.27-.14-.48-.35-.64-.61-.16-.26-.24-.55-.24-.88,0-.51.15-1.05.44-1.63.29-.57.7-1.05,1.23-1.45s1.13-.59,1.81-.59c.54,0,.98.15,1.3.46.32.3.48.72.48,1.26s-.15,1.05-.44,1.63c-.29.57-.71,1.05-1.24,1.44-.54.39-1.15.58-1.84.58-.3,0-.59-.07-.86-.22Zm1.87-.92c.27-.45.5-.99.68-1.61.18-.63.28-1.18.28-1.66,0-.34-.14-.5-.41-.5-.22,0-.46.22-.74.67-.28.45-.52.98-.71,1.61s-.29,1.17-.29,1.64c0,.18.04.31.11.4.08.09.18.13.31.13.25,0,.51-.22.78-.67Z"/>
      <path class="cls-1" d="m136.72,8.5c-.16-.11-.25-.24-.25-.38,0-.1.03-.24.08-.4l1.21-3.13s.02-.08.02-.13c0-.1-.05-.14-.16-.14-.14,0-.26.02-.35.07s-.21.13-.36.25c-.03.03-.08.05-.13.05-.08,0-.12-.05-.12-.16,0-.15.07-.31.2-.46.14-.16.32-.3.54-.43.18-.1.38-.19.58-.25.2-.06.4-.1.58-.1.21,0,.36.06.47.17.1.11.16.27.16.47,0,.22-.06.47-.18.76l-.46,1.09v.05s0,.05.04.05c.05,0,.08-.02.11-.07.46-.82.88-1.45,1.28-1.88.4-.43.8-.64,1.21-.64.25,0,.44.07.58.22.14.14.2.33.2.55,0,.21-.05.41-.14.61-.1.2-.21.36-.35.49-.14.12-.27.19-.4.19-.09,0-.16-.04-.2-.12s-.09-.21-.12-.38c-.06-.35-.17-.53-.32-.53-.14,0-.27.08-.4.25s-.3.42-.51.77c-.26.41-.62,1.02-1.08,1.85l-.32.56c-.16.28-.32.51-.49.68s-.32.26-.46.26-.29-.06-.45-.17Z"/>
      <path class="cls-1" d="m141.24,8.42c-.2-.15-.31-.35-.31-.6,0-.21.05-.38.14-.52.1-.14.22-.21.36-.21.06,0,.12.03.19.09.07.06.17.16.29.29.03.02.1.09.21.2.11.11.22.19.32.26.11.06.21.1.31.1.26,0,.38-.15.38-.44,0-.18-.18-.52-.54-1.03-.36-.51-.54-.96-.54-1.34,0-.26.12-.55.37-.85.24-.3.53-.55.85-.76s.58-.31.78-.31.38.04.58.13c.19.08.35.19.47.31.12.12.19.23.19.32,0,.14-.08.31-.25.5s-.32.28-.46.28c-.14,0-.3-.12-.47-.35-.07-.11-.16-.2-.28-.28-.11-.07-.22-.11-.32-.11-.11,0-.2.04-.26.11-.06.08-.1.16-.1.26,0,.07.04.17.12.29s.2.28.35.48c.08.1.14.17.17.22.24.3.41.56.51.76.1.2.15.4.15.59,0,.22-.12.48-.36.78-.24.3-.54.55-.91.76-.37.21-.74.31-1.12.31-.34,0-.62-.08-.82-.23Z"/>
    </g>
  </g>
</svg>